<?xml version="1.0" encoding="iso-8859-1"?>
<!-- Generator: Adobe Illustrator 17.1.0, SVG Export Plug-In . SVG Version: 6.00 Build 0)  -->
<!DOCTYPE svg PUBLIC "-//W3C//DTD SVG 1.1//EN" "http://www.w3.org/Graphics/SVG/1.1/DTD/svg11.dtd">
<svg version="1.1" id="Capa_1" xmlns="http://www.w3.org/2000/svg" xmlns:xlink="http://www.w3.org/1999/xlink" x="0px" y="0px"
	 viewBox="0 0 242.667 242.667" style="enable-background:new 0 0 242.667 242.667;" xml:space="preserve">
<path d="M0,0v242.667h242.667V0H0z M168.85,74.856c-4.047,19.591-8.123,39.175-12.202,58.759c-0.259,1.244-0.564,2.487-0.956,3.695
	c-1.874,5.774-5.589,8.519-11.681,8.557c-6.914,0.043-13.828,0.04-20.742-0.013c-1.301-0.01-2.23,0.375-3.071,1.362
	c-5.218,6.126-10.473,12.22-15.718,18.323c-6.252,7.276-12.489,14.564-18.768,21.816c-1.987,2.294-5.868,3.168-8.809,2.053
	c-3.089-1.171-4.398-3.627-4.681-6.762c-0.045-0.497-0.028-1-0.028-1.5C72.192,142.573,72.185,104,72.202,65.427
	c0.002-4.934,2.011-8.784,6.438-11.215c1.416-0.778,3.007-0.999,4.53-1.436c25.846,0,51.692,0,77.537,0
	c1.015,0.233,2.047,0.407,3.041,0.708c3.837,1.161,6.085,4.052,6.577,8.028C170.891,66.095,169.758,70.46,168.85,74.856z
	 M153.755,73.305c-0.961,4.909-1.999,9.803-3.044,14.696c-0.509,2.385-1.979,3.514-4.476,3.517c-8.963,0.008-17.927,0-26.89,0.006
	c-4.63,0.003-6.988,2.354-6.993,6.95c-0.001,0.728-0.008,1.456,0.003,2.184c0.055,3.625,2.592,6.188,6.221,6.199
	c7.689,0.025,15.379,0.012,23.068,0.005c0.97-0.001,1.92,0.061,2.745,0.633c1.354,0.938,1.792,2.293,1.489,3.834
	c-1.061,5.399-2.151,10.793-3.291,16.176c-0.383,1.807-1.808,2.811-3.835,2.821c-4.959,0.023-9.919-0.012-14.878,0.02
	c-2.363,0.016-4.727,0.115-7.088,0.209c-1.565,0.063-2.905,0.638-3.973,1.831c-3.189,3.561-6.04,7.397-9.041,11.111
	c-5.175,6.403-10.294,12.851-15.438,19.279c-0.138,0.172-0.294,0.329-0.527,0.588c-0.411-0.615-0.272-1.127-0.272-1.608
	c-0.008-29.62-0.008-59.24-0.006-88.86c0-3.586,1.231-4.805,4.846-4.805c19.019-0.002,38.038-0.002,57.056,0
	C152.964,68.091,154.439,69.814,153.755,73.305z"/>
<g>
</g>
<g>
</g>
<g>
</g>
<g>
</g>
<g>
</g>
<g>
</g>
<g>
</g>
<g>
</g>
<g>
</g>
<g>
</g>
<g>
</g>
<g>
</g>
<g>
</g>
<g>
</g>
<g>
</g>
</svg>
